<svg width="1478" height="79" viewBox="0 0 1478 79" fill="none" xmlns="http://www.w3.org/2000/svg">
<mask id="path-1-inside-1" fill="white">
<path d="M0 0.594868L1346.48 78.8027C1346.77 78.6287 1347.05 78.4552 1347.33 78.282C1369.61 64.5929 1391.01 52.0179 1412.41 39.443L1412.42 39.4385L1412.42 39.4359L1412.43 39.4323L1412.43 39.4291L1477.5 0.594727L0 0.594868Z"/>
</mask>
<path d="M0 0.594868L1346.48 78.8027C1346.77 78.6287 1347.05 78.4552 1347.33 78.282C1369.61 64.5929 1391.01 52.0179 1412.41 39.443L1412.42 39.4385L1412.42 39.4359L1412.43 39.4323L1412.43 39.4291L1477.5 0.594727L0 0.594868Z" fill="#0E0E0E"/>
<path d="M1347.33 78.282L1347.08 77.8526L1347.07 77.856L1347.33 78.282ZM1412.41 39.443L1412.15 39.0119L1412.15 39.0137L1412.41 39.443ZM1412.43 39.4323L1412.17 39.0013L1412.17 39.0013L1412.43 39.4323ZM1412.43 39.4291L1412.68 39.8602L1412.43 39.4291ZM1346.75 79.2286C1346.89 79.1419 1347.03 79.0551 1347.17 78.9683C1347.31 78.8816 1347.45 78.7948 1347.59 78.708L1347.07 77.856C1346.93 77.9428 1346.79 78.0296 1346.65 78.1163C1346.5 78.2031 1346.36 78.2899 1346.22 78.3767L1346.75 79.2286ZM1412.67 39.867C1412.68 39.8651 1412.68 39.8634 1412.68 39.8623C1412.68 39.8612 1412.68 39.8603 1412.68 39.8601C1412.69 39.8597 1412.68 39.8601 1412.68 39.8605C1412.68 39.861 1412.68 39.8621 1412.68 39.8634L1412.17 39.0013C1412.17 39.0032 1412.17 39.0048 1412.16 39.0059C1412.16 39.007 1412.16 39.0079 1412.16 39.0081C1412.16 39.0085 1412.16 39.0082 1412.16 39.0077C1412.16 39.0072 1412.16 39.0061 1412.17 39.0048L1412.67 39.867ZM1412.68 39.8634C1412.68 39.8629 1412.68 39.8624 1412.68 39.8618C1412.68 39.8613 1412.68 39.8608 1412.68 39.8602L1412.18 38.998C1412.18 38.9986 1412.18 38.9991 1412.18 38.9996C1412.17 39.0001 1412.17 39.0007 1412.17 39.0013L1412.68 39.8634ZM1412.68 39.8602C1434.08 27.2871 1455.48 14.7111 1477.76 1.02072L1477.24 0.168737C1454.97 13.8532 1433.58 26.4243 1412.18 38.998L1412.68 39.8602ZM1347.59 78.7113L1412.66 39.8724L1412.15 39.0137L1347.08 77.8527L1347.59 78.7113ZM1412.66 39.8741C1412.66 39.8736 1412.66 39.873 1412.66 39.8722C1412.67 39.8715 1412.67 39.8706 1412.67 39.8696L1412.16 39.0074C1412.16 39.008 1412.16 39.0085 1412.16 39.0093C1412.16 39.01 1412.16 39.011 1412.15 39.0119L1412.66 39.8741ZM0 0.594868L-9.55288e-08 -0.405132L-0.0579852 1.59319L0 0.594868ZM1346.48 78.8027L1346.43 79.801L1346.74 79.8191L1347 79.6564L1346.48 78.8027ZM1477.5 0.594727L1478.01 1.45342L1481.13 -0.405274L1477.5 -0.405273L1477.5 0.594727ZM1347.33 78.282L1346.81 77.43L1346.8 77.4319L1347.33 78.282ZM1412.42 39.4385L1412.92 40.3012L1412.93 40.298L1412.42 39.4385ZM1412.42 39.4359L1412.93 40.2954L1412.94 40.2913L1412.42 39.4359ZM1412.41 39.443L1411.9 38.5804L1411.9 38.5808L1412.41 39.443ZM1412.43 39.4323L1411.92 38.5701L1411.91 38.5769L1412.43 39.4323ZM1412.43 39.4291L1412.94 40.2913L1412.94 40.2878L1412.43 39.4291ZM1346.54 77.8043L0.0579852 -0.40345L-0.0579852 1.59319L1346.43 79.801L1346.54 77.8043ZM1346.8 77.4319C1346.53 77.6038 1346.25 77.7761 1345.96 77.9489L1347 79.6564C1347.29 79.4814 1347.58 79.3066 1347.86 79.1321L1346.8 77.4319ZM9.55288e-08 1.59487L1477.5 1.59473L1477.5 -0.405273L-9.55288e-08 -0.405132L9.55288e-08 1.59487ZM1412.93 40.298L1412.93 40.2954L1411.91 38.5764L1411.9 38.579L1412.93 40.298ZM1347.85 79.134C1370.12 65.4509 1391.51 52.8807 1412.91 40.3052L1411.9 38.5808C1390.5 51.1551 1369.09 63.735 1346.81 77.43L1347.85 79.134ZM1412.91 40.3057L1412.92 40.3012L1411.91 38.5758L1411.9 38.5804L1412.91 40.3057ZM1412.94 40.2913L1412.94 40.2878L1411.91 38.5769L1411.9 38.5805L1412.94 40.2913ZM1412.93 40.2946L1412.94 40.2913L1411.92 38.5669L1411.92 38.5701L1412.93 40.2946ZM1412.94 40.2878L1478.01 1.45342L1476.99 -0.263969L1411.92 38.5704L1412.94 40.2878Z" fill="black" mask="url(#path-1-inside-1)"/>
</svg>
