<svg width="28" height="30" viewBox="0 0 28 30" fill="none" xmlns="http://www.w3.org/2000/svg">
<path fill-rule="evenodd" clip-rule="evenodd" d="M17.128 26.1397L1.54973 9.36813C1.27071 9.06769 1.30144 8.5989 1.61839 8.32103C1.62583 8.3145 1.6334 8.30812 1.64109 8.30187C4.1304 6.28056 6.96031 4.72698 10.1308 3.64114C13.3007 2.55563 16.4674 2.05531 19.6311 2.14019C20.0528 2.1515 20.3768 2.49229 20.3548 2.90137C20.3544 2.90834 20.3539 2.9153 20.3533 2.92226L18.4641 25.678C18.4302 26.0866 18.0615 26.3993 17.6405 26.3764C17.4429 26.3657 17.2591 26.2808 17.128 26.1397Z" fill="#F3A82E"/>
<path fill-rule="evenodd" clip-rule="evenodd" d="M8.62033 13.8309C10.1562 13.3021 10.9848 11.6639 10.4711 10.1719C9.95734 8.67989 8.29581 7.8991 6.75994 8.42794C5.22407 8.95679 4.39547 10.595 4.9092 12.087C5.42293 13.579 7.08446 14.3598 8.62033 13.8309Z" fill="#D0021B"/>
<path fill-rule="evenodd" clip-rule="evenodd" d="M16.0349 10.0692C17.5708 9.54035 18.3994 7.90214 17.8856 6.41015C17.3719 4.91817 15.7104 4.13738 14.1745 4.66623C12.6386 5.19507 11.81 6.83327 12.3237 8.32526C12.8375 9.81725 14.499 10.598 16.0349 10.0692Z" fill="#D0021B"/>
<path fill-rule="evenodd" clip-rule="evenodd" d="M15.6745 19.8629C17.2104 19.334 18.039 17.6958 17.5253 16.2039C17.0115 14.7119 15.35 13.9311 13.8141 14.4599C12.2783 14.9888 11.4497 16.627 11.9634 18.119C12.4771 19.6109 14.1387 20.3917 15.6745 19.8629Z" fill="#D0021B"/>
</svg>
