<svg width="115" height="19" viewBox="0 0 115 19" fill="none" xmlns="http://www.w3.org/2000/svg">
<path fill-rule="evenodd" clip-rule="evenodd" d="M12.1526 6.11724C11.6526 5.81723 11.136 5.55057 10.6026 5.31724C10.1526 5.11724 9.64847 4.92974 9.09014 4.75474C8.5318 4.57974 7.98597 4.49224 7.45264 4.49224C7.0193 4.49224 6.67347 4.5589 6.41514 4.69224C6.1568 4.82557 6.02764 5.05057 6.02764 5.36724C6.02764 5.60057 6.10264 5.79224 6.25264 5.94224C6.40264 6.09224 6.6193 6.22974 6.90264 6.35474C7.18597 6.47974 7.5318 6.60057 7.94014 6.71724C8.34847 6.8339 8.81097 6.97557 9.32764 7.14224C10.1443 7.39224 10.8818 7.66724 11.5401 7.96724C12.1985 8.26724 12.761 8.6214 13.2276 9.02974C13.6943 9.43807 14.0526 9.9339 14.3026 10.5172C14.5526 11.1006 14.6776 11.8089 14.6776 12.6422C14.6776 13.7089 14.4818 14.6047 14.0901 15.3297C13.6985 16.0547 13.1818 16.6339 12.5401 17.0672C11.8985 17.5006 11.1735 17.8131 10.3651 18.0047C9.5568 18.1964 8.74431 18.2922 7.92764 18.2922C7.27763 18.2922 6.61097 18.2422 5.92764 18.1422C5.2443 18.0422 4.56514 17.9006 3.89014 17.7172C3.21513 17.5339 2.56514 17.3172 1.94014 17.0672C1.31513 16.8172 0.735973 16.5339 0.202637 16.2172L2.30264 11.9422C2.88597 12.3089 3.4943 12.6339 4.12764 12.9172C4.66097 13.1672 5.26513 13.3922 5.94014 13.5922C6.61514 13.7922 7.30263 13.8922 8.00264 13.8922C8.53597 13.8922 8.9068 13.8214 9.11514 13.6797C9.32347 13.5381 9.42764 13.3506 9.42764 13.1172C9.42764 12.8672 9.32347 12.6547 9.11514 12.4797C8.9068 12.3047 8.61931 12.1506 8.25264 12.0172C7.88597 11.8839 7.46514 11.7506 6.99014 11.6172C6.51513 11.4839 6.01097 11.3256 5.47764 11.1422C4.6943 10.8756 4.01931 10.5881 3.45264 10.2797C2.88597 9.9714 2.41931 9.6214 2.05264 9.22974C1.68597 8.83807 1.41514 8.39224 1.24014 7.89224C1.06514 7.39223 0.977637 6.81724 0.977637 6.16724C0.977637 5.1839 1.1568 4.31724 1.51514 3.56724C1.87347 2.81723 2.36097 2.19224 2.97764 1.69224C3.59431 1.19223 4.29847 0.813071 5.09014 0.554736C5.88181 0.296402 6.7193 0.167236 7.60264 0.167236C8.25264 0.167236 8.88597 0.229736 9.50264 0.354736C10.1193 0.479737 10.7151 0.638069 11.2901 0.829736C11.8651 1.0214 12.4026 1.22974 12.9026 1.45474C13.4026 1.67974 13.8526 1.89224 14.2526 2.09224L12.1526 6.11724ZM19.0941 18.0672V0.317236H23.9691V13.8172H32.0191V18.0672H19.0941ZM35.9856 0.317236V18.0672H40.8606V0.317236H35.9856ZM45.2021 9.04224C45.2021 7.9589 45.4062 6.89224 45.8146 5.84224C46.2229 4.79223 46.8187 3.85057 47.6021 3.01724C48.3854 2.1839 49.3354 1.50891 50.4521 0.992236C51.5688 0.475567 52.8437 0.217236 54.2771 0.217236C55.9938 0.217236 57.4812 0.571399 58.7396 1.27974C59.9979 1.98807 60.9354 2.92556 61.5521 4.09224L57.8271 6.74224C57.6604 6.3089 57.4396 5.95057 57.1646 5.66724C56.8896 5.3839 56.5854 5.1589 56.2521 4.99224C55.9187 4.82557 55.5729 4.7089 55.2146 4.64224C54.8562 4.57557 54.5104 4.54224 54.1771 4.54224C53.4771 4.54224 52.8729 4.67974 52.3646 4.95474C51.8562 5.22974 51.4396 5.58807 51.1146 6.02974C50.7896 6.47141 50.5479 6.9714 50.3896 7.52974C50.2313 8.08807 50.1521 8.64223 50.1521 9.19224C50.1521 9.80891 50.2437 10.4006 50.4271 10.9672C50.6104 11.5339 50.8771 12.0339 51.2271 12.4672C51.5771 12.9006 52.0062 13.2464 52.5146 13.5047C53.0229 13.7631 53.5937 13.8922 54.2271 13.8922C54.5604 13.8922 54.9021 13.8547 55.2521 13.7797C55.6021 13.7047 55.9396 13.5797 56.2646 13.4047C56.5896 13.2297 56.8812 13.0047 57.1396 12.7297C57.3979 12.4547 57.6021 12.1172 57.7521 11.7172L61.7271 14.0922C61.4604 14.7422 61.0563 15.3256 60.5146 15.8422C59.9729 16.3589 59.3563 16.7922 58.6646 17.1422C57.9729 17.4922 57.2313 17.7589 56.4396 17.9422C55.6479 18.1256 54.8771 18.2172 54.1271 18.2172C52.8104 18.2172 51.6063 17.9547 50.5146 17.4297C49.4229 16.9047 48.4813 16.2089 47.6896 15.3422C46.8979 14.4756 46.2854 13.4922 45.8521 12.3922C45.4187 11.2922 45.2021 10.1756 45.2021 9.04224ZM78.3686 18.0672V13.8172H70.5936V11.0172H77.0436V7.06724H70.5936V4.56724H78.1436V0.317236H65.7186V18.0672H78.3686Z" fill="white"/>
<path fill-rule="evenodd" clip-rule="evenodd" d="M90.8018 0.317139V18.0671H95.6768V0.317139H90.8018ZM109.718 4.56714H114.818V0.317139H99.7182V4.56714H104.843V18.0671H109.718V4.56714Z" fill="#D0021B"/>
</svg>
