<?xml version="1.0" encoding="UTF-8"?>
<svg width="22px" height="28px" viewBox="0 0 22 28" version="1.1" xmlns="http://www.w3.org/2000/svg" xmlns:xlink="http://www.w3.org/1999/xlink">
    <!-- Generator: Sketch 55.2 (78181) - https://sketchapp.com -->
    <title>Group</title>
    <desc>Created with Sketch.</desc>
    <g id="Logo" stroke="none" stroke-width="1" fill="none" fill-rule="evenodd">
        <g id="Artboard" transform="translate(-138.000000, -78.000000)">
            <g id="Group" transform="translate(137.000000, 78.000000)">
                <path d="M13.307174,3.03649289 L22.4602342,23.8541582 C22.8127917,24.6560541 22.6025018,25.5940652 21.9413333,26.1686869 C19.9282286,27.9182766 17.0818546,28.8564605 13.4022116,28.9832385 C9.80193656,29.107282 6.56712831,28.5428362 3.69778681,27.2899012 C2.1793885,26.6268642 1.48597262,24.8584648 2.14900228,23.3400634 C2.15658495,23.3226983 2.16433197,23.3054055 2.1722423,23.2881872 L11.4830581,3.02151724 C11.7136187,2.51966045 12.3073603,2.29973145 12.8092171,2.53029208 C13.0315374,2.63242939 13.2087006,2.81252562 13.307174,3.03649289 Z" id="Triangle" fill="#F5A623" transform="translate(12.000000, 15.000000) rotate(-178.000000) translate(-12.000000, -15.000000) "></path>
                <g id="Group-3" transform="translate(16.018108, 9.124634) rotate(2.000000) translate(-16.018108, -9.124634) translate(11.518108, 4.624634)">
                    <path d="M4.29669573,8.01486627 C6.35348032,8.01486627 8.02083366,6.34552798 8.02083366,4.28629484 C8.02083366,2.2270617 6.35348032,0.557723408 4.29669573,0.557723408 C2.23991115,0.557723408 0.572557802,2.2270617 0.572557802,4.28629484 C0.572557802,6.34552798 2.23991115,8.01486627 4.29669573,8.01486627 Z" id="Oval-Copy-2" fill="#D0021B"></path>
                    <ellipse id="Oval-Copy-5" fill="#FF495F" transform="translate(6.852681, 3.494722) rotate(-2.000000) translate(-6.852681, -3.494722) " cx="6.85268106" cy="3.49472187" rx="1" ry="1"></ellipse>
                    <ellipse id="Oval-Copy-9" fill="#FF495F" transform="translate(2.688388, 2.811239) rotate(-2.000000) translate(-2.688388, -2.811239) " cx="2.6883884" cy="2.81123881" rx="1" ry="1"></ellipse>
                    <ellipse id="Oval-Copy-7" fill="#FF495F" transform="translate(4.599867, 4.195293) rotate(-2.000000) translate(-4.599867, -4.195293) " cx="4.59986714" cy="4.19529288" rx="1" ry="1"></ellipse>
                    <ellipse id="Oval-Copy-6" fill-opacity="0.76" fill="#E4223A" transform="translate(5.247748, 1.996316) rotate(-2.000000) translate(-5.247748, -1.996316) " cx="5.2477478" cy="1.99631569" rx="1" ry="1"></ellipse>
                    <ellipse id="Oval-Copy-8" fill-opacity="0.5" fill="#E4223A" transform="translate(3.802193, 6.254419) rotate(-2.000000) translate(-3.802193, -6.254419) " cx="3.80219271" cy="6.25441882" rx="1" ry="1"></ellipse>
                    <ellipse id="Oval-Copy-3" fill-opacity="0.86" fill="#DD4658" transform="translate(6.468548, 5.539389) rotate(-2.000000) translate(-6.468548, -5.539389) " cx="6.46854766" cy="5.53938944" rx="1" ry="1"></ellipse>
                    <ellipse id="Oval-Copy-4" fill="#DD4658" transform="translate(1.876273, 4.456331) rotate(-2.000000) translate(-1.876273, -4.456331) " cx="1.8762728" cy="4.45633141" rx="1" ry="1"></ellipse>
                </g>
                <g id="Group-3-Copy-2" transform="translate(11.006701, 17.633162) rotate(2.000000) translate(-11.006701, -17.633162) translate(7.006701, 13.633162)">
                    <path d="M4.43511727,7.22687101 C6.3681139,7.22687101 7.93511727,5.65986763 7.93511727,3.72687101 C7.93511727,1.79387439 6.3681139,0.22687101 4.43511727,0.22687101 C2.50212065,0.22687101 0.935117272,1.79387439 0.935117272,3.72687101 C0.935117272,5.65986763 2.50212065,7.22687101 4.43511727,7.22687101 Z" id="Oval-Copy-2" fill="#D0021B"></path>
                    <circle id="Oval-Copy-5" fill="#E70B26" transform="translate(6.433899, 3.657072) rotate(-2.000000) translate(-6.433899, -3.657072) " cx="6.43389893" cy="3.65707202" r="1"></circle>
                    <circle id="Oval-Copy-9" fill="#FF495F" transform="translate(3.365927, 1.762989) rotate(-2.000000) translate(-3.365927, -1.762989) " cx="3.36592745" cy="1.76298885" r="1"></circle>
                    <path d="M5.25119304,5.69720976 C5.66503249,5.71480981 6.01555424,5.39362795 6.03410528,4.97982999 C6.05265631,4.56603204 5.73221174,4.21631487 5.31837228,4.19871482 C4.90453283,4.18111478 4.55401108,4.50229664 4.53546004,4.91609459 C4.51690901,5.32989254 4.83735358,5.67960972 5.25119304,5.69720976 Z" id="Oval-Copy-7" fill-opacity="0.7" fill="#FF495F"></path>
                    <circle id="Oval-Copy-6" fill="#E4223A" transform="translate(4.882463, 2.210335) rotate(-2.000000) translate(-4.882463, -2.210335) " cx="4.88246344" cy="2.21033502" r="1"></circle>
                    <circle id="Oval-Copy-8" fill="#E4223A" transform="translate(3.505525, 5.760552) rotate(-2.000000) translate(-3.505525, -5.760552) " cx="3.50552544" cy="5.76055216" r="1"></circle>
                    <circle id="Oval-Copy-4" fill="#DD4658" transform="translate(2.436336, 3.796670) rotate(-2.000000) translate(-2.436336, -3.796670) " cx="2.43633562" cy="3.79667" r="1"></circle>
                </g>
                <g id="Group-3-Copy" transform="translate(7.018108, 6.624634) rotate(2.000000) translate(-7.018108, -6.624634) translate(2.518108, 2.624634)">
                    <path d="M4.71608679,7.8027281 C6.77287141,7.8027281 8.44022479,6.13338981 8.44022479,4.07415667 C8.44022479,2.01492353 6.77287141,0.345585242 4.71608679,0.345585242 C2.65930217,0.345585242 0.991948791,2.01492353 0.991948791,4.07415667 C0.991948791,6.13338981 2.65930217,7.8027281 4.71608679,7.8027281 Z" id="Oval-Copy-2" fill="#D0021B"></path>
                    <g id="Group-6" transform="translate(0.724404, 0.713593)">
                        <ellipse id="Oval-Copy-5" fill="#FF495F" transform="translate(6.547668, 2.568990) rotate(-2.000000) translate(-6.547668, -2.568990) " cx="6.54766824" cy="2.56899037" rx="1" ry="1"></ellipse>
                        <ellipse id="Oval-Copy-9" fill="#FF495F" transform="translate(2.383376, 1.885507) rotate(-2.000000) translate(-2.383376, -1.885507) " cx="2.38337558" cy="1.88550731" rx="1" ry="1"></ellipse>
                        <ellipse id="Oval-Copy-7" fill="#FF495F" transform="translate(4.294854, 3.269561) rotate(-2.000000) translate(-4.294854, -3.269561) " cx="4.29485432" cy="3.26956138" rx="1" ry="1"></ellipse>
                        <ellipse id="Oval-Copy-6" fill="#E4223A" transform="translate(4.942735, 1.070584) rotate(-2.000000) translate(-4.942735, -1.070584) " cx="4.94273498" cy="1.07058419" rx="1" ry="1"></ellipse>
                        <ellipse id="Oval-Copy-8" fill="#E4223A" transform="translate(3.497180, 5.328687) rotate(-2.000000) translate(-3.497180, -5.328687) " cx="3.49717989" cy="5.32868732" rx="1" ry="1"></ellipse>
                        <ellipse id="Oval-Copy-3" fill="#DD4658" transform="translate(6.163535, 4.613658) rotate(-2.000000) translate(-6.163535, -4.613658) " cx="6.16353484" cy="4.61365794" rx="1" ry="1"></ellipse>
                        <ellipse id="Oval-Copy-4" fill="#DD4658" transform="translate(1.571260, 3.530600) rotate(-2.000000) translate(-1.571260, -3.530600) " cx="1.57125998" cy="3.53059991" rx="1" ry="1"></ellipse>
                    </g>
                </g>
            </g>
        </g>
    </g>
</svg>