<svg width="110" height="91" viewBox="0 0 110 91" fill="none" xmlns="http://www.w3.org/2000/svg">
<path d="M42 27C42 27 50.3232 27 77.9212 27C99.3863 27 106.956 36.2628 109.462 52.1968C111.968 68.1308 105.081 91 102.015 91C94.5676 91 105.519 52.1971 71.7883 52.1968C62.1509 52.1967 42 52.1968 42 52.1968V27Z" fill="black"/>
<path d="M3.48508 40.4141C1.92488 39.1974 1.94898 36.8302 3.53362 35.6455L38.9611 9.16102C40.9507 7.67368 43.7825 9.11042 43.7572 11.5944L43.2108 65.2791C43.1855 67.763 40.325 69.1418 38.3662 67.6143L3.48508 40.4141Z" fill="black"/>
</svg>
