<svg width="15" height="17" viewBox="0 0 15 17" fill="none" xmlns="http://www.w3.org/2000/svg">
<path d="M7.5 8.5C9.86719 8.5 11.7857 6.59746 11.7857 4.25C11.7857 1.90254 9.86719 0 7.5 0C5.13281 0 3.21429 1.90254 3.21429 4.25C3.21429 6.59746 5.13281 8.5 7.5 8.5ZM10.5 9.5625H9.94085C9.19754 9.90117 8.37054 10.0938 7.5 10.0938C6.62946 10.0938 5.8058 9.90117 5.05915 9.5625H4.5C2.01562 9.5625 0 11.5613 0 14.025V15.4062C0 16.2861 0.719866 17 1.60714 17H13.3929C14.2801 17 15 16.2861 15 15.4062V14.025C15 11.5613 12.9844 9.5625 10.5 9.5625Z" fill="#F9F8F7"/>
</svg>
